<svg width="505" height="581" viewBox="0 0 505 581" fill="none" xmlns="http://www.w3.org/2000/svg">
<path d="M147.249 387.716C143.469 388.904 139.358 389.961 135.382 390.352C103.498 393.525 75.3796 386.325 47.954 370.881C47.442 370.592 47.0404 370.693 46.7492 371.186C41.6737 379.661 31.7487 383.891 22.1249 382.833C5.28702 380.979 -4.62292 363.855 2.1544 349.194C11.5071 328.926 41.8243 330.303 48.948 351.454C49.1187 351.956 49.4752 352.14 50.0174 352.005C91.8661 341.11 133.941 332.481 176.241 326.116C181.302 325.348 185.534 324.204 185.594 318.959C185.614 317.482 185.142 315.917 184.178 314.265C165.091 281.457 155.131 246.142 154.298 208.32C154.057 197.696 153.741 188.12 153.349 179.592C152.37 158.108 145.035 109.967 113.513 110.575C102.082 110.792 89.5969 115.501 88.2264 127.728C87.7043 132.47 88.1059 137.574 89.4313 143.041C91.7105 152.506 93.6985 161.517 95.3953 170.074C98.7087 186.831 97.805 202.501 92.6844 217.085C89.5969 225.85 79.0092 235.339 70.0632 241.076C69.8956 241.185 69.774 241.346 69.7213 241.531C69.6686 241.715 69.6884 241.909 69.777 242.076C81.5997 264.458 52.397 286.421 32.5017 270.34C22.4864 262.242 20.6791 248.044 28.9625 237.961C36.8091 228.4 49.6409 226.56 60.7255 232.311C60.8336 232.369 60.9533 232.403 61.0764 232.412C61.1996 232.421 61.3233 232.404 61.4391 232.363C61.5549 232.322 61.6601 232.257 61.7475 232.173C61.8348 232.089 61.9024 231.988 61.9455 231.877C64.4606 225.444 64.4907 218.534 63.1352 211.812C59.114 191.848 51.2373 173.87 42.6677 155.674C32.9234 134.943 27.4112 111.618 30.4083 89.3948C33.9124 63.3757 45.956 42.1278 66.539 25.651C90.5859 6.39268 118.042 -2.00508 148.906 0.45775C197.206 4.32584 232.282 34.2274 251.967 76.1679C252.338 76.9599 252.71 76.9599 253.081 76.1679C266.214 47.8454 287.615 23.0143 316.818 10.3525C337.692 1.3125 359.219 -1.80708 381.398 0.993781C403.096 3.72704 422.906 12.5691 440.828 27.5199C466.16 48.6712 478.103 80.1809 474.865 112.357C473.52 125.811 469.739 139.347 463.524 152.965C456.069 169.292 448.765 184.894 443.84 203.206C441.129 213.246 439.488 222.344 443.042 231.906C443.263 232.504 443.664 232.654 444.247 232.355C452.249 228.153 460.131 227.868 467.892 231.5C480.709 237.483 485.197 253.636 477.41 265.067C466.567 280.974 442.379 278.612 434.683 261.546C431.822 255.22 431.957 248.773 435.09 242.206C435.194 241.983 435.214 241.732 435.145 241.498C435.076 241.265 434.923 241.064 434.713 240.931C423.237 233.499 413.628 223.981 410.33 210.783C404.607 187.879 409.682 166.51 415.451 143.78C416.575 139.318 417.082 134.556 416.972 129.495C416.61 114.371 399.306 109.068 386.579 110.894C357.934 114.979 351.834 163.946 351.397 184.938C351.177 195.755 350.85 205.64 350.419 214.593C348.692 250.406 338.832 283.596 320.839 314.164C317.767 319.394 319.408 324.522 326.005 325.58C370.509 332.708 410.932 340.56 454.774 351.976C455.387 352.13 455.798 351.927 456.009 351.367C460.964 338.358 474.383 331.664 488.149 336.083C505.8 341.748 510.725 363.797 497.441 376.14C485.965 386.803 466.597 384.876 458.253 371.273C457.862 370.635 457.34 370.51 456.687 370.896C430.813 386.397 402.659 392.974 372.226 390.627C367.467 390.26 362.708 389.324 357.949 387.817C356.674 387.411 356.568 387.604 357.633 388.396C371.127 398.518 381.072 412.199 387.468 429.439C393.743 446.369 398.005 462.228 400.254 477.015C400.335 477.546 400.656 477.807 401.218 477.797C411.921 477.575 419.803 481.487 424.864 489.532C431.882 500.73 428.388 515.71 416.55 522.548C408.387 527.256 397.619 527.445 389.923 522.316C379.41 515.324 376.057 505.54 379.862 492.965C380.023 492.434 379.832 492.062 379.29 491.85C360.052 484.374 342.507 475.296 326.653 464.614C315.357 457.003 306.19 448.224 299.152 438.276C298.74 437.687 298.529 437.75 298.519 438.464C298.429 458.631 293.193 479.83 282.811 502.063C276.777 514.957 270.938 525.957 265.295 535.065C264.994 535.548 265.089 535.944 265.581 536.253C273.232 541.043 277.218 547.669 277.54 556.129C278.037 569.197 267.479 580.439 253.97 580.975C227.659 582.018 217.478 550.103 239.391 536.238C239.582 536.119 239.718 535.934 239.771 535.721C239.825 535.508 239.791 535.284 239.677 535.094C222.523 506.728 208.592 476.232 206.528 443.346C206.438 441.825 206.649 440.203 206.634 438.667C206.624 437.721 206.343 437.639 205.79 438.421C199.445 447.326 191.367 455.298 181.558 462.339C166.346 473.263 147.701 483.124 125.622 491.922C125.08 492.135 124.899 492.511 125.08 493.052C128.464 503.126 126.626 511.702 119.568 518.781C110.878 527.488 96.7658 528.691 86.5998 521.302C74.3103 512.378 73.2259 495.892 83.5124 485.258C88.5527 480.062 95.2798 477.585 103.694 477.826C104.266 477.845 104.597 477.585 104.688 477.044C107.67 459.089 112.404 442.052 118.89 425.933C124.914 410.992 134.453 398.397 147.505 388.15C148.238 387.571 148.153 387.426 147.249 387.716ZM235.174 69.9964C217.568 37.3422 185.127 14.3075 145.879 11.9027C117.976 10.2028 93.3772 18.3736 72.0813 36.415C37.8332 65.4184 34.6554 109.793 52.7132 148.647C56.2977 156.364 59.9574 164.569 63.6925 173.261C70.1686 188.328 74.4258 203.612 76.464 219.113C76.5644 219.896 76.8656 219.978 77.3676 219.36C86.4191 208.291 86.3438 187.691 83.7383 173.638C82.1218 164.83 80.1488 155.669 77.8194 146.156C76.0322 138.815 75.5955 131.997 76.5092 125.7C80.0183 101.665 112.248 92.7269 131.872 102.94C161.452 118.326 166.015 166.539 166.075 195.253C166.075 195.948 166.291 196.016 166.723 195.456C188.32 167.887 228.321 173.392 251.409 196.629C252.142 197.363 252.509 197.223 252.509 196.209L252.479 108.46C252.479 107.13 252.213 105.816 251.695 104.592C246.585 92.4709 241.078 80.9391 235.174 69.9964ZM252.223 219.113C244.18 202.347 231.153 192.404 213.14 189.284C192.326 185.691 173.56 196.339 171.256 217.433C170.021 228.656 170.935 241.728 173.997 256.65C177.572 274.092 184.068 291.134 193.486 307.775C204.36 326.971 220.55 347.166 242.463 352.207C277.991 360.393 303.173 325.087 316.411 298.605C326.974 277.502 332.908 255.322 334.213 232.065C334.795 221.885 333.852 213.811 331.382 207.842C323.128 187.966 298.414 184.619 279.693 192.703C267.424 198.015 258.473 206.819 252.84 219.113C252.816 219.171 252.775 219.219 252.722 219.253C252.668 219.287 252.605 219.305 252.54 219.305C252.475 219.305 252.41 219.287 252.354 219.253C252.298 219.219 252.252 219.171 252.223 219.113ZM60.2135 252.333C60.2135 249.236 58.9345 246.266 56.658 244.076C54.3816 241.886 51.294 240.656 48.0745 240.656C44.8551 240.656 41.7675 241.886 39.491 244.076C37.2145 246.266 35.9356 249.236 35.9356 252.333C35.9356 255.429 37.2145 258.399 39.491 260.589C41.7675 262.779 44.8551 264.009 48.0745 264.009C51.294 264.009 54.3816 262.779 56.658 260.589C58.9345 258.399 60.2135 255.429 60.2135 252.333ZM469.067 252.333C469.067 249.232 467.786 246.258 465.507 244.066C463.228 241.873 460.136 240.641 456.913 240.641C453.689 240.641 450.598 241.873 448.319 244.066C446.039 246.258 444.759 249.232 444.759 252.333C444.759 255.433 446.039 258.407 448.319 260.599C450.598 262.792 453.689 264.024 456.913 264.024C460.136 264.024 463.228 262.792 465.507 260.599C467.786 258.407 469.067 255.433 469.067 252.333ZM37.4115 358.872C37.4115 355.736 36.1168 352.729 33.812 350.512C31.5073 348.295 28.3814 347.05 25.122 347.05C21.8626 347.05 18.7367 348.295 16.432 350.512C14.1272 352.729 12.8324 355.736 12.8324 358.872C12.8324 362.007 14.1272 365.014 16.432 367.231C18.7367 369.448 21.8626 370.693 25.122 370.693C28.3814 370.693 31.5073 369.448 33.812 367.231C36.1168 365.014 37.4115 362.007 37.4115 358.872ZM492.2 358.872C492.2 355.74 490.907 352.737 488.605 350.523C486.303 348.308 483.181 347.064 479.926 347.064C476.67 347.064 473.548 348.308 471.246 350.523C468.944 352.737 467.651 355.74 467.651 358.872C467.651 362.003 468.944 365.006 471.246 367.22C473.548 369.435 476.67 370.679 479.926 370.679C483.181 370.679 486.303 369.435 488.605 367.22C490.907 365.006 492.2 362.003 492.2 358.872ZM324.619 447.504C342.436 462.136 364.801 472.784 387.377 482.013C387.483 482.055 387.599 482.069 387.712 482.055C387.826 482.04 387.933 481.996 388.024 481.929C388.114 481.861 388.184 481.771 388.227 481.669C388.269 481.567 388.283 481.455 388.266 481.346C385.013 461.731 379.953 441.637 371.037 423.615C365.534 412.508 357.728 403.449 347.617 396.437C328.058 382.867 308.178 369.133 287.977 355.235C287.274 354.752 286.561 354.733 285.838 355.177L280.823 358.278C280.598 358.414 280.427 358.618 280.337 358.857C280.247 359.096 280.243 359.356 280.326 359.596C287.751 381.66 295.447 403.246 305.583 424.035C310.101 433.321 316.698 441 324.619 447.504ZM201.543 419.892C210.469 399.764 218.17 379.637 224.646 359.509C224.817 358.958 224.651 358.533 224.149 358.234L218.848 355.076C218.246 354.719 217.658 354.738 217.086 355.134C198.662 367.998 180.458 380.559 162.476 392.815C147.686 402.884 138.379 412.894 131.646 428.439C124.96 443.882 120.02 461.47 116.827 481.202C116.809 481.312 116.821 481.425 116.863 481.529C116.904 481.633 116.973 481.725 117.063 481.795C117.153 481.865 117.261 481.912 117.375 481.93C117.49 481.948 117.607 481.936 117.715 481.897C137.987 474.209 156.502 464.604 173.259 453.082C186.292 444.109 195.72 433.046 201.543 419.892ZM113.875 501.976C113.875 498.849 112.583 495.849 110.284 493.638C107.985 491.426 104.867 490.184 101.615 490.184C98.364 490.184 95.2458 491.426 92.9467 493.638C90.6476 495.849 89.356 498.849 89.356 501.976C89.356 505.104 90.6476 508.103 92.9467 510.315C95.2458 512.526 98.364 513.769 101.615 513.769C104.867 513.769 107.985 512.526 110.284 510.315C112.583 508.103 113.875 505.104 113.875 501.976ZM415.692 501.991C415.692 498.859 414.398 495.856 412.097 493.642C409.795 491.428 406.673 490.184 403.417 490.184C400.162 490.184 397.04 491.428 394.738 493.642C392.436 495.856 391.143 498.859 391.143 501.991C391.143 505.122 392.436 508.125 394.738 510.34C397.04 512.554 400.162 513.798 403.417 513.798C406.673 513.798 409.795 512.554 412.097 510.34C414.398 508.125 415.692 505.122 415.692 501.991ZM264.783 556.912C264.783 553.78 263.49 550.777 261.188 548.563C258.886 546.349 255.764 545.105 252.509 545.105C249.253 545.105 246.131 546.349 243.829 548.563C241.527 550.777 240.234 553.78 240.234 556.912C240.234 560.043 241.527 563.046 243.829 565.261C246.131 567.475 249.253 568.719 252.509 568.719C255.764 568.719 258.886 567.475 261.188 565.261C263.49 563.046 264.783 560.043 264.783 556.912Z" fill="#53577D"/>
</svg>
