<svg width="402" height="620" viewBox="0 0 402 620" fill="none" xmlns="http://www.w3.org/2000/svg">
<g filter="url(#filter0_d_11_3)">
<rect x="3.04098" y="1.00344" width="371" height="591" rx="24" transform="rotate(0.197541 3.04098 1.00344)" fill="white" stroke="black" stroke-width="2"/>
<path d="M145.281 345.264C140.121 349.492 136.356 354.68 133.987 360.83C131.435 367.464 129.58 374.474 128.419 381.859C128.384 382.081 128.253 382.189 128.026 382.181C124.692 382.092 122.029 383.118 120.038 385.26C115.974 389.643 116.424 396.42 121.304 400.075C125.341 403.101 130.931 402.59 134.365 399.001C137.153 396.083 137.871 392.554 136.519 388.417C136.446 388.195 136.517 388.04 136.732 387.952C145.471 384.309 152.847 380.234 158.862 375.726C162.741 372.82 165.932 369.533 168.436 365.865C168.654 365.543 168.766 365.576 168.771 365.966C168.778 366.597 168.697 367.264 168.734 367.889C169.591 381.407 175.147 393.929 181.978 405.571C182.023 405.649 182.037 405.741 182.016 405.829C181.995 405.917 181.941 405.993 181.866 406.042C173.199 411.767 177.271 424.876 187.695 424.418C193.048 424.182 197.218 419.548 197.006 414.176C196.868 410.698 195.281 407.979 192.244 406.018C192.049 405.892 192.01 405.729 192.129 405.53C194.354 401.779 196.655 397.25 199.031 391.943C203.119 382.79 205.168 374.069 205.18 365.778C205.184 365.484 205.267 365.458 205.431 365.7C208.232 369.782 211.874 373.38 216.359 376.496C222.654 380.87 229.617 384.583 237.249 387.634C237.464 387.721 237.54 387.873 237.477 388.092C235.984 393.266 237.324 397.285 241.498 400.147C244.554 402.247 248.821 402.157 252.05 400.212C256.733 397.388 258.099 391.225 255.305 386.629C253.291 383.328 250.163 381.728 245.922 381.832C245.699 381.836 245.571 381.73 245.539 381.511C244.63 375.435 242.923 368.92 240.416 361.966C237.862 354.886 233.905 349.273 228.545 345.127C228.123 344.802 228.164 344.723 228.67 344.888C230.558 345.502 232.445 345.882 234.331 346.027C246.393 346.958 257.541 344.222 267.776 337.82C268.034 337.66 268.241 337.711 268.397 337.973C271.719 343.556 279.396 344.326 283.931 339.929C289.18 334.84 287.203 325.78 280.202 323.472C274.742 321.671 269.432 324.438 267.484 329.792C267.401 330.022 267.238 330.106 266.995 330.043C249.609 325.4 233.582 322.217 215.939 319.338C213.324 318.91 212.667 316.804 213.878 314.65C220.972 302.062 224.84 288.406 225.482 273.681C225.643 270 225.76 265.935 225.835 261.488C225.984 252.857 228.343 232.719 239.689 231.007C244.73 230.242 251.593 232.402 251.754 238.62C251.804 240.7 251.608 242.658 251.168 244.494C248.909 253.846 246.923 262.637 249.218 272.046C250.54 277.469 254.359 281.371 258.915 284.413C258.999 284.468 259.059 284.55 259.087 284.646C259.115 284.742 259.107 284.845 259.066 284.937C257.833 287.641 257.786 290.291 258.928 292.889C261.997 299.896 271.585 300.839 275.863 294.287C278.935 289.579 277.137 282.943 272.052 280.498C268.972 279.014 265.849 279.14 262.683 280.876C262.453 281 262.293 280.939 262.205 280.693C260.785 276.766 261.425 273.024 262.488 268.893C264.418 261.359 267.294 254.937 270.228 248.216C272.675 242.61 274.157 237.041 274.674 231.508C275.92 218.276 271.15 205.335 261.087 196.668C253.968 190.542 246.108 186.93 237.507 185.831C228.715 184.704 220.188 186.011 211.927 189.751C200.37 194.99 191.919 205.223 186.749 216.882C186.602 217.208 186.455 217.208 186.307 216.883C178.458 199.663 164.523 187.409 145.38 185.874C133.147 184.897 122.277 188.38 112.771 196.325C104.634 203.122 99.8869 211.871 98.529 222.572C97.3676 231.712 99.5793 241.295 103.465 249.807C106.882 257.278 110.024 264.661 111.641 272.863C112.186 275.625 112.183 278.467 111.194 281.114C111.177 281.16 111.15 281.201 111.115 281.236C111.081 281.271 111.039 281.297 110.993 281.314C110.948 281.331 110.899 281.338 110.85 281.335C110.801 281.331 110.754 281.317 110.711 281.294C106.312 278.942 101.229 279.713 98.131 283.653C94.8606 287.808 95.5934 293.642 99.5716 296.96C107.474 303.549 119.02 294.487 114.309 285.298C114.274 285.229 114.265 285.15 114.286 285.074C114.307 284.998 114.355 284.932 114.421 284.887C117.959 282.518 122.144 278.605 123.357 274.998C125.369 268.996 125.708 262.553 124.375 255.668C123.693 252.152 122.895 248.449 121.98 244.56C121.449 242.315 121.284 240.217 121.485 238.266C122.014 233.238 126.955 231.288 131.485 231.186C143.975 230.9 146.938 250.683 147.351 259.515C147.516 263.021 147.653 266.957 147.761 271.325C148.136 286.873 152.124 301.38 159.726 314.847C160.11 315.525 160.299 316.167 160.292 316.775C160.275 318.931 158.599 319.406 156.595 319.728C139.841 322.393 123.178 325.988 106.608 330.515C106.394 330.571 106.252 330.496 106.184 330.289C103.336 321.602 91.3214 321.07 87.6392 329.413C84.9709 335.449 88.9179 342.477 95.5922 343.221C99.407 343.644 103.335 341.894 105.336 338.404C105.451 338.201 105.61 338.159 105.813 338.278C116.699 344.595 127.849 347.524 140.48 346.183C142.055 346.018 143.683 345.578 145.179 345.086C145.537 344.966 145.571 345.025 145.281 345.264Z" stroke="#999999" stroke-width="2"/>
<path d="M179.646 214.365C172.631 200.96 159.749 191.527 144.194 190.583C133.135 189.916 123.397 193.303 114.98 200.744C101.443 212.707 100.236 230.954 107.437 246.907C108.867 250.076 110.327 253.445 111.817 257.014C114.401 263.201 116.106 269.48 116.932 275.85C116.972 276.172 117.092 276.205 117.29 275.95C120.864 271.39 120.81 262.92 119.761 257.146C119.11 253.527 118.317 249.763 117.383 245.854C116.666 242.839 116.485 240.036 116.84 237.446C118.202 227.561 130.962 223.849 138.751 228.026C150.49 234.318 152.355 254.134 152.412 265.939C152.413 266.225 152.499 266.252 152.669 266.022C161.195 254.663 177.052 256.881 186.228 266.408C186.519 266.709 186.665 266.651 186.663 266.234L186.548 230.158C186.547 229.612 186.44 229.072 186.233 228.569C184.194 223.592 181.998 218.857 179.646 214.365Z" stroke="#999999" stroke-width="2"/>
<path d="M186.577 275.651C183.37 268.767 178.196 264.694 171.055 263.432C162.803 261.978 155.38 266.377 154.491 275.052C154.015 279.667 154.393 285.04 155.624 291.171C157.061 298.338 159.655 305.337 163.406 312.168C167.738 320.047 174.177 328.332 182.866 330.379C196.954 333.704 206.891 319.161 212.106 308.258C216.266 299.57 218.591 290.445 219.081 280.882C219.3 276.697 218.917 273.378 217.931 270.927C214.637 262.765 204.84 261.417 197.431 264.762C192.576 266.959 189.039 270.589 186.822 275.65C186.812 275.673 186.796 275.694 186.775 275.708C186.754 275.722 186.729 275.729 186.703 275.729C186.677 275.729 186.651 275.722 186.629 275.708C186.607 275.694 186.589 275.674 186.577 275.651Z" stroke="#999999" stroke-width="2"/>
<path d="M110.531 289.526C110.528 288.253 110.018 287.033 109.113 286.135C108.208 285.238 106.983 284.735 105.708 284.739C104.432 284.743 103.21 285.252 102.31 286.155C101.411 287.058 100.908 288.28 100.911 289.553C100.915 290.826 101.425 292.046 102.33 292.944C103.234 293.841 104.459 294.344 105.735 294.34C107.011 294.336 108.233 293.827 109.132 292.924C110.032 292.021 110.535 290.799 110.531 289.526Z" stroke="#999999" stroke-width="2"/>
<path d="M272.542 289.062C272.538 287.787 272.027 286.566 271.121 285.667C270.216 284.768 268.989 284.265 267.712 284.269C266.435 284.273 265.211 284.782 264.31 285.686C263.41 286.59 262.906 287.814 262.91 289.089C262.913 290.364 263.424 291.585 264.33 292.484C265.236 293.383 266.462 293.886 267.739 293.882C269.017 293.878 270.24 293.368 271.141 292.464C272.041 291.56 272.545 290.336 272.542 289.062Z" stroke="#999999" stroke-width="2"/>
<path d="M101.621 333.352C101.618 332.063 101.101 330.828 100.185 329.919C99.2694 329.011 98.0293 328.502 96.7377 328.506C95.4462 328.51 94.209 329.025 93.2983 329.939C92.3877 330.853 91.8781 332.091 91.8818 333.38C91.8855 334.669 92.4021 335.904 93.318 336.812C94.2339 337.721 95.474 338.23 96.7656 338.226C98.0571 338.222 99.2943 337.707 100.205 336.793C101.116 335.879 101.625 334.641 101.621 333.352Z" stroke="#999999" stroke-width="2"/>
<path d="M281.834 332.836C281.83 331.548 281.314 330.315 280.399 329.407C279.485 328.5 278.246 327.992 276.956 327.996C275.666 327.999 274.43 328.514 273.521 329.427C272.611 330.34 272.103 331.576 272.106 332.864C272.11 334.151 272.626 335.384 273.541 336.292C274.455 337.2 275.694 337.708 276.984 337.704C278.274 337.7 279.51 337.185 280.419 336.272C281.329 335.359 281.838 334.123 281.834 332.836Z" stroke="#999999" stroke-width="2"/>
<path d="M215.533 369.465C222.611 375.46 231.485 379.812 240.442 383.581C240.484 383.598 240.53 383.604 240.575 383.598C240.62 383.591 240.662 383.573 240.698 383.545C240.734 383.517 240.761 383.481 240.778 383.438C240.795 383.396 240.8 383.351 240.794 383.306C239.481 375.245 237.452 366.99 233.898 359.591C231.705 355.031 228.601 351.315 224.586 348.444C216.82 342.887 208.926 337.263 200.905 331.573C200.626 331.375 200.343 331.368 200.057 331.551L198.074 332.832C197.985 332.888 197.917 332.972 197.882 333.07C197.846 333.169 197.845 333.276 197.878 333.374C200.846 342.437 203.921 351.302 207.962 359.838C209.764 363.65 212.387 366.8 215.533 369.465Z" stroke="#999999" stroke-width="2"/>
<path d="M166.731 358.252C170.244 349.967 173.272 341.684 175.815 333.402C175.882 333.175 175.816 333 175.616 332.878L173.512 331.586C173.273 331.439 173.04 331.448 172.814 331.611C165.528 336.921 158.33 342.106 151.219 347.165C145.37 351.321 141.694 355.447 139.044 361.846C136.413 368.202 134.476 375.439 133.234 383.554C133.227 383.6 133.232 383.646 133.249 383.689C133.265 383.731 133.293 383.769 133.328 383.798C133.364 383.827 133.407 383.846 133.452 383.853C133.498 383.86 133.544 383.855 133.587 383.839C141.611 380.655 148.936 376.686 155.563 371.93C160.716 368.226 164.439 363.667 166.731 358.252Z" stroke="#999999" stroke-width="2"/>
<path d="M132.089 392.099C132.085 390.813 131.57 389.581 130.656 388.674C129.743 387.768 128.506 387.261 127.217 387.264C125.929 387.268 124.695 387.782 123.786 388.694C122.878 389.606 122.37 390.841 122.373 392.126C122.377 393.412 122.892 394.644 123.806 395.55C124.72 396.457 125.957 396.964 127.245 396.961C128.533 396.957 129.768 396.443 130.676 395.531C131.584 394.619 132.093 393.384 132.089 392.099Z" stroke="#999999" stroke-width="2"/>
<path d="M251.685 391.762C251.682 390.475 251.166 389.241 250.251 388.334C249.336 387.426 248.098 386.918 246.808 386.922C245.518 386.925 244.282 387.44 243.373 388.353C242.463 389.266 241.954 390.502 241.958 391.79C241.961 393.077 242.477 394.31 243.392 395.218C244.307 396.126 245.546 396.634 246.836 396.63C248.125 396.626 249.361 396.111 250.271 395.198C251.18 394.285 251.689 393.049 251.685 391.762Z" stroke="#999999" stroke-width="2"/>
<path d="M191.952 414.512C191.948 413.225 191.432 411.992 190.517 411.084C189.603 410.176 188.364 409.668 187.074 409.672C185.784 409.676 184.548 410.191 183.639 411.104C182.729 412.017 182.22 413.253 182.224 414.54C182.228 415.828 182.744 417.061 183.659 417.969C184.573 418.876 185.812 419.384 187.102 419.38C188.392 419.377 189.627 418.862 190.537 417.949C191.447 417.036 191.955 415.8 191.952 414.512Z" stroke="#999999" stroke-width="2"/>
<path d="M332.851 296.501C332.962 335.172 317.675 372.303 290.355 399.726C263.034 427.149 225.917 442.617 187.169 442.728C148.421 442.839 111.215 427.583 83.7381 400.317C56.2607 373.052 40.7618 336.009 40.6511 297.338C40.5403 258.667 55.8267 221.536 83.1474 194.113C110.468 166.69 147.585 151.221 186.333 151.11C225.081 150.999 262.287 166.255 289.764 193.521C317.241 220.787 332.74 257.83 332.851 296.501ZM145.281 345.264C140.121 349.492 136.356 354.68 133.986 360.83C131.435 367.464 129.579 374.474 128.419 381.859C128.384 382.081 128.253 382.189 128.026 382.181C124.692 382.092 122.029 383.118 120.038 385.26C115.974 389.643 116.423 396.42 121.304 400.075C125.341 403.101 130.931 402.59 134.364 399.001C137.153 396.083 137.871 392.554 136.518 388.417C136.446 388.195 136.517 388.04 136.732 387.952C145.47 384.309 152.847 380.234 158.862 375.726C162.741 372.82 165.932 369.533 168.436 365.865C168.654 365.543 168.765 365.576 168.77 365.966C168.778 366.597 168.697 367.264 168.734 367.889C169.59 381.407 175.147 393.929 181.978 405.571C182.023 405.649 182.037 405.741 182.016 405.829C181.995 405.917 181.941 405.993 181.865 406.042C173.199 411.767 177.27 424.876 187.695 424.418C193.048 424.182 197.218 419.548 197.006 414.176C196.868 410.698 195.281 407.979 192.244 406.018C192.048 405.892 192.01 405.729 192.129 405.53C194.354 401.779 196.655 397.25 199.031 391.943C203.118 382.79 205.168 374.069 205.18 365.778C205.183 365.484 205.267 365.458 205.431 365.7C208.231 369.782 211.874 373.38 216.359 376.496C222.654 380.87 229.617 384.583 237.249 387.634C237.464 387.721 237.54 387.873 237.477 388.092C235.984 393.266 237.324 397.285 241.498 400.147C244.554 402.247 248.821 402.157 252.05 400.212C256.732 397.388 258.099 391.225 255.305 386.629C253.29 383.328 250.163 381.728 245.922 381.832C245.699 381.836 245.571 381.73 245.539 381.511C244.63 375.435 242.923 368.92 240.416 361.966C237.861 354.886 233.904 349.273 228.545 345.127C228.123 344.802 228.164 344.723 228.67 344.888C230.558 345.502 232.445 345.882 234.331 346.027C246.393 346.958 257.541 344.222 267.775 337.82C268.034 337.66 268.241 337.711 268.397 337.973C271.719 343.556 279.396 344.326 283.931 339.929C289.18 334.84 287.202 325.78 280.201 323.472C274.742 321.671 269.432 324.438 267.484 329.792C267.401 330.022 267.238 330.106 266.995 330.043C249.609 325.4 233.582 322.217 215.939 319.338C213.324 318.91 212.667 316.804 213.878 314.65C220.972 302.062 224.84 288.406 225.482 273.681C225.643 270 225.76 265.935 225.835 261.488C225.983 252.857 228.343 232.719 239.689 231.007C244.729 230.242 251.593 232.402 251.754 238.62C251.804 240.7 251.608 242.658 251.168 244.494C248.909 253.846 246.923 262.637 249.218 272.046C250.54 277.469 254.359 281.371 258.915 284.413C258.998 284.468 259.059 284.55 259.087 284.646C259.115 284.742 259.107 284.845 259.066 284.937C257.832 287.641 257.786 290.291 258.928 292.889C261.997 299.896 271.585 300.839 275.863 294.287C278.935 289.579 277.137 282.944 272.051 280.498C268.972 279.014 265.849 279.14 262.683 280.876C262.452 281 262.293 280.939 262.205 280.693C260.785 276.766 261.425 273.024 262.487 268.893C264.417 261.359 267.293 254.937 270.228 248.216C272.675 242.61 274.157 237.041 274.674 231.508C275.919 218.276 271.15 205.335 261.087 196.668C253.968 190.542 246.107 186.93 237.506 185.831C228.714 184.704 220.188 186.011 211.927 189.751C200.37 194.99 191.919 205.223 186.748 216.882C186.602 217.208 186.455 217.208 186.307 216.883C178.457 199.663 164.523 187.409 145.379 185.874C133.146 184.897 122.277 188.38 112.771 196.325C104.634 203.122 99.8867 211.871 98.5288 222.572C97.3674 231.712 99.5791 241.295 103.465 249.807C106.882 257.278 110.024 264.661 111.641 272.863C112.186 275.625 112.182 278.467 111.193 281.114C111.176 281.16 111.15 281.201 111.115 281.236C111.081 281.271 111.039 281.297 110.993 281.314C110.947 281.331 110.898 281.338 110.85 281.335C110.801 281.331 110.753 281.317 110.71 281.294C106.311 278.942 101.229 279.713 98.1309 283.653C94.8604 287.808 95.5933 293.642 99.5714 296.96C107.474 303.549 119.02 294.487 114.309 285.298C114.273 285.229 114.265 285.15 114.286 285.074C114.307 284.998 114.355 284.932 114.421 284.887C117.959 282.518 122.143 278.605 123.356 274.998C125.368 268.996 125.708 262.553 124.375 255.668C123.693 252.152 122.894 248.449 121.98 244.56C121.449 242.315 121.283 240.217 121.485 238.266C122.013 233.238 126.955 231.288 131.485 231.186C143.975 230.9 146.938 250.683 147.351 259.515C147.516 263.021 147.653 266.957 147.761 271.325C148.135 286.873 152.124 301.38 159.726 314.847C160.11 315.525 160.299 316.167 160.292 316.775C160.275 318.931 158.599 319.406 156.595 319.728C139.84 322.393 123.178 325.988 106.608 330.515C106.394 330.571 106.252 330.496 106.184 330.289C103.336 321.602 91.3212 321.07 87.639 329.413C84.9707 335.449 88.9178 342.477 95.592 343.221C99.4068 343.644 103.335 341.894 105.336 338.404C105.451 338.201 105.61 338.159 105.813 338.278C116.699 344.595 127.849 347.524 140.479 346.183C142.054 346.018 143.682 345.578 145.179 345.086C145.537 344.966 145.571 345.025 145.281 345.264Z" fill="white"/>
<path d="M145.179 345.086C143.683 345.578 142.055 346.018 140.48 346.183C127.849 347.524 116.699 344.596 105.813 338.278C105.61 338.159 105.451 338.201 105.336 338.404C103.335 341.894 99.407 343.644 95.5922 343.221C88.9179 342.477 84.9709 335.449 87.6392 329.413C91.3214 321.07 103.336 321.602 106.184 330.289C106.252 330.496 106.394 330.571 106.608 330.515C123.178 325.988 139.841 322.393 156.595 319.728C158.599 319.406 160.275 318.931 160.292 316.775C160.299 316.167 160.11 315.525 159.726 314.847C152.124 301.38 148.136 286.873 147.761 271.325C147.653 266.957 147.516 263.021 147.351 259.515C146.938 250.683 143.975 230.9 131.485 231.186C126.955 231.288 122.014 233.238 121.485 238.266C121.284 240.217 121.449 242.315 121.98 244.56C122.895 248.449 123.693 252.152 124.375 255.668C125.708 262.553 125.369 268.996 123.357 274.998C122.144 278.605 117.959 282.518 114.421 284.887C114.355 284.932 114.307 284.998 114.286 285.074C114.265 285.15 114.274 285.229 114.309 285.298C119.02 294.487 107.474 303.549 99.5716 296.96C95.5934 293.642 94.8606 287.808 98.131 283.653C101.229 279.713 106.312 278.942 110.711 281.294C110.754 281.317 110.801 281.331 110.85 281.335C110.899 281.338 110.948 281.331 110.993 281.314C111.039 281.297 111.081 281.271 111.115 281.236C111.15 281.201 111.177 281.16 111.194 281.114C112.183 278.467 112.186 275.626 111.641 272.863C110.024 264.661 106.882 257.278 103.465 249.807C99.5793 241.295 97.3676 231.712 98.529 222.572C99.8869 211.871 104.634 203.122 112.771 196.325C122.277 188.38 133.147 184.897 145.38 185.874C164.523 187.409 178.458 199.663 186.307 216.883C186.455 217.208 186.602 217.208 186.749 216.882C191.919 205.223 200.37 194.99 211.927 189.751C220.188 186.011 228.715 184.704 237.507 185.831C246.108 186.93 253.968 190.542 261.087 196.668C271.15 205.335 275.92 218.276 274.674 231.508C274.157 237.041 272.675 242.61 270.228 248.216C267.294 254.937 264.418 261.359 262.488 268.893C261.425 273.024 260.785 276.766 262.205 280.693C262.293 280.939 262.453 281 262.683 280.876C265.849 279.14 268.972 279.014 272.052 280.498C277.137 282.944 278.935 289.579 275.863 294.287C271.585 300.839 261.997 299.896 258.928 292.889C257.786 290.291 257.833 287.641 259.066 284.937C259.107 284.845 259.115 284.742 259.087 284.646C259.059 284.55 258.999 284.468 258.915 284.413C254.359 281.371 250.54 277.469 249.218 272.046C246.923 262.637 248.909 253.846 251.168 244.494C251.608 242.658 251.804 240.7 251.754 238.62C251.593 232.402 244.73 230.242 239.689 231.007C228.343 232.719 225.984 252.857 225.835 261.488C225.76 265.935 225.643 270 225.482 273.681C224.84 288.406 220.972 302.062 213.879 314.65C212.667 316.804 213.324 318.91 215.939 319.338C233.582 322.217 249.609 325.4 266.995 330.043C267.238 330.106 267.401 330.022 267.484 329.792C269.432 324.438 274.742 321.671 280.202 323.472C287.203 325.78 289.18 334.84 283.931 339.929C279.396 344.326 271.719 343.556 268.397 337.973C268.241 337.711 268.034 337.66 267.776 337.82C257.541 344.222 246.393 346.958 234.331 346.028C232.445 345.882 230.558 345.502 228.67 344.888C228.164 344.723 228.123 344.802 228.545 345.127C233.905 349.273 237.862 354.886 240.416 361.966C242.923 368.92 244.63 375.435 245.539 381.511C245.571 381.73 245.699 381.836 245.922 381.832C250.163 381.728 253.291 383.328 255.305 386.629C258.099 391.225 256.733 397.388 252.05 400.213C248.821 402.157 244.554 402.247 241.498 400.147C237.325 397.285 235.984 393.266 237.477 388.092C237.54 387.873 237.464 387.721 237.249 387.634C229.617 384.583 222.654 380.87 216.359 376.497C211.874 373.38 208.232 369.782 205.431 365.7C205.267 365.458 205.184 365.484 205.18 365.778C205.168 374.069 203.119 382.79 199.031 391.943C196.655 397.25 194.354 401.779 192.129 405.53C192.01 405.729 192.049 405.892 192.244 406.018C195.281 407.979 196.868 410.698 197.006 414.176C197.218 419.548 193.048 424.182 187.695 424.418C177.271 424.876 173.199 411.767 181.866 406.042C181.941 405.993 181.995 405.917 182.016 405.829C182.037 405.741 182.023 405.649 181.978 405.571C175.147 393.929 169.591 381.407 168.734 367.889C168.697 367.264 168.778 366.597 168.771 365.966C168.766 365.576 168.654 365.543 168.436 365.865C165.932 369.533 162.741 372.82 158.862 375.726C152.847 380.234 145.471 384.309 136.732 387.952C136.517 388.04 136.446 388.195 136.519 388.417C137.871 392.555 137.153 396.083 134.365 399.001C130.931 402.59 125.341 403.101 121.304 400.075C116.424 396.42 115.974 389.643 120.038 385.26C122.029 383.118 124.692 382.092 128.026 382.181C128.253 382.189 128.384 382.081 128.419 381.859C129.58 374.474 131.435 367.464 133.987 360.83C136.356 354.68 140.121 349.492 145.281 345.264C145.571 345.025 145.537 344.966 145.179 345.086ZM179.646 214.365C172.631 200.96 159.749 191.527 144.194 190.583C133.135 189.916 123.397 193.303 114.98 200.744C101.443 212.707 100.236 230.954 107.437 246.907C108.867 250.076 110.327 253.445 111.817 257.014C114.401 263.201 116.106 269.48 116.932 275.85C116.972 276.172 117.092 276.205 117.29 275.95C120.864 271.39 120.81 262.92 119.761 257.146C119.11 253.527 118.317 249.763 117.383 245.854C116.666 242.839 116.485 240.036 116.839 237.446C118.202 227.561 130.962 223.849 138.751 228.026C150.49 234.318 152.355 254.134 152.412 265.939C152.413 266.225 152.499 266.252 152.669 266.022C161.195 254.663 177.052 256.881 186.228 266.408C186.519 266.709 186.664 266.651 186.663 266.234L186.548 230.158C186.546 229.612 186.44 229.072 186.233 228.569C184.194 223.592 181.998 218.857 179.646 214.365ZM186.577 275.651C183.37 268.767 178.196 264.694 171.055 263.432C162.803 261.978 155.38 266.377 154.491 275.052C154.015 279.667 154.393 285.04 155.624 291.171C157.061 298.338 159.655 305.337 163.406 312.168C167.738 320.047 174.177 328.332 182.866 330.379C196.954 333.704 206.891 319.161 212.106 308.258C216.266 299.57 218.591 290.445 219.081 280.882C219.3 276.697 218.917 273.378 217.931 270.927C214.637 262.765 204.84 261.417 197.431 264.762C192.576 266.959 189.039 270.589 186.822 275.65C186.812 275.674 186.796 275.694 186.775 275.708C186.754 275.722 186.729 275.729 186.703 275.729C186.677 275.729 186.651 275.722 186.629 275.708C186.607 275.694 186.589 275.674 186.577 275.651ZM110.531 289.526C110.528 288.253 110.017 287.033 109.113 286.135C108.208 285.238 106.983 284.735 105.707 284.739C104.432 284.743 103.21 285.252 102.31 286.155C101.411 287.058 100.907 288.28 100.911 289.553C100.915 290.826 101.425 292.046 102.33 292.944C103.234 293.841 104.459 294.344 105.735 294.34C107.011 294.336 108.233 293.827 109.132 292.924C110.032 292.021 110.535 290.799 110.531 289.526ZM272.542 289.062C272.538 287.787 272.027 286.566 271.121 285.667C270.216 284.768 268.989 284.265 267.712 284.269C266.435 284.273 265.211 284.782 264.31 285.686C263.41 286.59 262.906 287.814 262.909 289.089C262.913 290.364 263.424 291.585 264.33 292.484C265.236 293.383 266.462 293.886 267.739 293.882C269.017 293.878 270.24 293.368 271.141 292.464C272.041 291.56 272.545 290.336 272.542 289.062ZM101.621 333.352C101.618 332.063 101.101 330.828 100.185 329.919C99.2694 329.011 98.0292 328.502 96.7377 328.506C95.4461 328.51 94.209 329.025 93.2983 329.939C92.3877 330.853 91.8781 332.091 91.8818 333.38C91.8855 334.669 92.4021 335.904 93.318 336.812C94.2339 337.721 95.474 338.23 96.7655 338.226C98.0571 338.222 99.2943 337.707 100.205 336.793C101.116 335.879 101.625 334.641 101.621 333.352ZM281.834 332.836C281.83 331.548 281.314 330.315 280.399 329.407C279.485 328.5 278.246 327.992 276.956 327.996C275.666 327.999 274.43 328.514 273.521 329.427C272.611 330.34 272.102 331.576 272.106 332.864C272.11 334.151 272.626 335.384 273.541 336.292C274.455 337.2 275.694 337.708 276.984 337.704C278.274 337.7 279.51 337.185 280.419 336.272C281.329 335.359 281.837 334.123 281.834 332.836ZM215.533 369.465C222.611 375.46 231.486 379.812 240.442 383.581C240.484 383.598 240.53 383.604 240.575 383.598C240.62 383.591 240.663 383.573 240.698 383.545C240.734 383.517 240.762 383.481 240.778 383.438C240.795 383.396 240.8 383.351 240.794 383.306C239.481 375.245 237.453 366.99 233.898 359.591C231.705 355.031 228.601 351.315 224.586 348.444C216.82 342.887 208.926 337.263 200.905 331.573C200.626 331.375 200.343 331.368 200.057 331.551L198.074 332.832C197.985 332.888 197.917 332.972 197.882 333.07C197.846 333.169 197.845 333.276 197.878 333.374C200.847 342.437 203.922 351.302 207.962 359.838C209.764 363.65 212.387 366.8 215.533 369.465ZM166.731 358.252C170.245 349.967 173.272 341.684 175.815 333.402C175.882 333.175 175.816 333.001 175.617 332.878L173.512 331.586C173.273 331.439 173.04 331.448 172.814 331.611C165.528 336.921 158.33 342.106 151.219 347.165C145.37 351.321 141.694 355.447 139.044 361.846C136.413 368.202 134.476 375.439 133.234 383.554C133.227 383.6 133.232 383.646 133.249 383.689C133.265 383.732 133.293 383.769 133.329 383.798C133.364 383.827 133.407 383.846 133.452 383.853C133.498 383.86 133.544 383.855 133.587 383.839C141.611 380.656 148.936 376.686 155.563 371.93C160.716 368.226 164.439 363.667 166.731 358.252ZM132.089 392.099C132.085 390.813 131.57 389.581 130.656 388.674C129.743 387.768 128.506 387.261 127.217 387.264C125.929 387.268 124.695 387.782 123.786 388.694C122.878 389.606 122.37 390.841 122.373 392.126C122.377 393.412 122.892 394.644 123.806 395.55C124.719 396.457 125.957 396.964 127.245 396.961C128.533 396.957 129.767 396.443 130.676 395.531C131.584 394.619 132.093 393.384 132.089 392.099ZM251.685 391.762C251.682 390.475 251.166 389.241 250.251 388.334C249.336 387.426 248.098 386.918 246.808 386.922C245.518 386.925 244.282 387.44 243.373 388.353C242.463 389.266 241.954 390.502 241.958 391.79C241.961 393.077 242.477 394.31 243.392 395.218C244.307 396.126 245.546 396.634 246.836 396.63C248.126 396.626 249.361 396.111 250.271 395.198C251.18 394.285 251.689 393.049 251.685 391.762ZM191.952 414.512C191.948 413.225 191.432 411.992 190.517 411.084C189.603 410.176 188.364 409.669 187.074 409.672C185.784 409.676 184.549 410.191 183.639 411.104C182.729 412.017 182.221 413.253 182.224 414.54C182.228 415.828 182.744 417.061 183.659 417.969C184.573 418.876 185.812 419.384 187.102 419.38C188.392 419.377 189.628 418.862 190.537 417.949C191.447 417.036 191.956 415.8 191.952 414.512Z" fill="#53577D"/>
<path d="M144.193 190.583C159.749 191.527 172.63 200.96 179.645 214.365C181.998 218.857 184.194 223.592 186.233 228.569C186.439 229.072 186.546 229.612 186.548 230.158L186.663 266.234C186.664 266.651 186.519 266.709 186.228 266.408C177.052 256.881 161.195 254.663 152.669 266.022C152.499 266.252 152.413 266.225 152.412 265.939C152.355 254.134 150.489 234.318 138.75 228.026C130.962 223.849 118.201 227.561 116.839 237.446C116.485 240.036 116.666 242.839 117.383 245.854C118.317 249.763 119.109 253.527 119.76 257.146C120.809 262.92 120.863 271.39 117.29 275.95C117.092 276.205 116.972 276.172 116.931 275.85C116.105 269.48 114.401 263.201 111.817 257.014C110.326 253.445 108.866 250.076 107.437 246.907C100.236 230.954 101.443 212.707 114.98 200.744C123.397 193.303 133.135 189.916 144.193 190.583Z" fill="white"/>
<path d="M186.577 275.651C186.589 275.674 186.607 275.694 186.629 275.708C186.651 275.722 186.677 275.729 186.703 275.729C186.729 275.729 186.754 275.722 186.775 275.708C186.796 275.694 186.812 275.673 186.822 275.65C189.039 270.589 192.576 266.959 197.431 264.762C204.84 261.417 214.637 262.765 217.931 270.927C218.917 273.378 219.3 276.697 219.081 280.882C218.591 290.445 216.266 299.57 212.106 308.258C206.891 319.161 196.954 333.704 182.866 330.379C174.177 328.332 167.738 320.047 163.406 312.168C159.655 305.337 157.061 298.338 155.624 291.171C154.393 285.04 154.015 279.667 154.491 275.052C155.38 266.377 162.803 261.978 171.055 263.432C178.196 264.694 183.37 268.767 186.577 275.651Z" fill="white"/>
<path d="M105.735 294.34C108.391 294.332 110.539 292.177 110.531 289.526C110.524 286.874 108.364 284.731 105.707 284.739C103.051 284.747 100.903 286.902 100.911 289.553C100.919 292.205 103.078 294.348 105.735 294.34Z" fill="white"/>
<path d="M267.739 293.882C270.399 293.874 272.549 291.716 272.541 289.062C272.534 286.407 270.371 284.261 267.712 284.269C265.052 284.277 262.902 286.435 262.909 289.089C262.917 291.744 265.079 293.89 267.739 293.882Z" fill="white"/>
<path d="M96.7656 338.226C99.4551 338.218 101.629 336.036 101.621 333.352C101.614 330.668 99.4272 328.498 96.7377 328.506C94.0482 328.514 91.8742 330.696 91.8818 333.38C91.8895 336.064 94.076 338.234 96.7656 338.226Z" fill="white"/>
<path d="M276.984 337.704C279.67 337.696 281.841 335.517 281.834 332.836C281.826 330.155 279.642 327.988 276.956 327.996C274.27 328.003 272.098 330.183 272.106 332.864C272.114 335.545 274.297 337.712 276.984 337.704Z" fill="white"/>
<path d="M240.442 383.581C231.485 379.812 222.611 375.46 215.533 369.465C212.387 366.8 209.764 363.65 207.962 359.838C203.921 351.302 200.846 342.437 197.878 333.374C197.845 333.276 197.846 333.169 197.882 333.07C197.917 332.972 197.985 332.888 198.074 332.832L200.057 331.551C200.343 331.368 200.626 331.375 200.905 331.573C208.926 337.263 216.82 342.887 224.586 348.444C228.601 351.315 231.705 355.031 233.898 359.591C237.452 366.99 239.481 375.245 240.794 383.306C240.8 383.351 240.795 383.396 240.778 383.438C240.761 383.481 240.734 383.517 240.698 383.545C240.662 383.573 240.62 383.591 240.575 383.598C240.53 383.604 240.484 383.598 240.442 383.581Z" fill="white"/>
<path d="M166.731 358.252C164.439 363.667 160.716 368.226 155.563 371.93C148.936 376.686 141.611 380.655 133.587 383.839C133.544 383.855 133.498 383.86 133.452 383.853C133.407 383.846 133.364 383.827 133.328 383.798C133.293 383.769 133.265 383.731 133.249 383.689C133.232 383.646 133.227 383.6 133.234 383.554C134.476 375.439 136.413 368.202 139.044 361.846C141.694 355.447 145.37 351.321 151.219 347.165C158.33 342.106 165.528 336.921 172.814 331.611C173.04 331.448 173.273 331.439 173.512 331.586L175.616 332.878C175.816 333 175.882 333.175 175.815 333.402C173.272 341.684 170.244 349.967 166.731 358.252Z" fill="white"/>
<path d="M127.245 396.961C129.928 396.953 132.096 394.776 132.089 392.099C132.081 389.421 129.9 387.257 127.217 387.264C124.534 387.272 122.365 389.449 122.373 392.126C122.381 394.804 124.562 396.968 127.245 396.961Z" fill="white"/>
<path d="M246.836 396.63C249.522 396.622 251.693 394.443 251.685 391.762C251.678 389.081 249.494 386.914 246.808 386.922C244.121 386.929 241.95 389.109 241.958 391.79C241.965 394.471 244.149 396.638 246.836 396.63Z" fill="white"/>
<path d="M187.102 419.38C189.788 419.373 191.959 417.193 191.952 414.512C191.944 411.831 189.76 409.664 187.074 409.672C184.388 409.68 182.216 411.859 182.224 414.54C182.232 417.221 184.416 419.388 187.102 419.38Z" fill="white"/>
</g>
<defs>
<filter id="filter0_d_11_3" x="0.0859375" y="0.0860415" width="401.87" height="619.11" filterUnits="userSpaceOnUse" color-interpolation-filters="sRGB">
<feFlood flood-opacity="0" result="BackgroundImageFix"/>
<feColorMatrix in="SourceAlpha" type="matrix" values="0 0 0 0 0 0 0 0 0 0 0 0 0 0 0 0 0 0 127 0" result="hardAlpha"/>
<feOffset dx="15" dy="13"/>
<feGaussianBlur stdDeviation="6"/>
<feComposite in2="hardAlpha" operator="out"/>
<feColorMatrix type="matrix" values="0 0 0 0 0 0 0 0 0 0 0 0 0 0 0 0 0 0 0.25 0"/>
<feBlend mode="normal" in2="BackgroundImageFix" result="effect1_dropShadow_11_3"/>
<feBlend mode="normal" in="SourceGraphic" in2="effect1_dropShadow_11_3" result="shape"/>
</filter>
</defs>
</svg>
