<svg width="153" height="40" viewBox="0 0 153 40" fill="none" xmlns="http://www.w3.org/2000/svg">
<path d="M10.497 26.693C10.2275 26.7748 9.9344 26.8476 9.65096 26.8745C7.37807 27.0929 5.3736 26.5972 3.41851 25.534C3.382 25.5141 3.35337 25.521 3.33262 25.555C2.9708 26.1384 2.26327 26.4297 1.57722 26.3569C0.376897 26.2292 -0.329555 25.0503 0.153581 24.0409C0.820309 22.6455 2.98154 22.7403 3.48937 24.1965C3.50153 24.2311 3.52694 24.2437 3.56559 24.2344C6.54887 23.4843 9.54825 22.8902 12.5637 22.452C12.9245 22.3992 13.2262 22.3204 13.2305 21.9593C13.2319 21.8576 13.1983 21.7499 13.1295 21.6362C11.7689 19.3774 11.0589 16.9461 10.9994 14.3422C10.9823 13.6108 10.9597 12.9515 10.9318 12.3644C10.862 10.8852 10.3392 7.57085 8.09204 7.61274C7.27715 7.6277 6.38711 7.95186 6.28941 8.79366C6.25219 9.12015 6.28082 9.47156 6.3753 9.84791C6.53778 10.4995 6.67949 11.1199 6.80046 11.7091C7.03666 12.8627 6.97224 13.9416 6.6072 14.9456C6.38711 15.549 5.63234 16.2023 4.9946 16.5973C4.98266 16.6048 4.97399 16.6159 4.97023 16.6286C4.96647 16.6413 4.96789 16.6546 4.9742 16.6661C5.81701 18.2071 3.73523 19.7192 2.31696 18.6121C1.60299 18.0545 1.47415 17.0771 2.06465 16.3829C2.62402 15.7246 3.53875 15.5979 4.32895 15.9939C4.33665 15.9978 4.34519 16.0002 4.35396 16.0008C4.36274 16.0014 4.37156 16.0003 4.37982 15.9974C4.38807 15.9946 4.39557 15.9901 4.4018 15.9844C4.40803 15.9786 4.41284 15.9716 4.41591 15.964C4.59521 15.5211 4.59736 15.0454 4.50073 14.5826C4.21407 13.2081 3.65256 11.9704 3.04166 10.7176C2.34702 9.29037 1.95407 7.68456 2.16772 6.15455C2.41752 4.36322 3.27607 2.90037 4.74337 1.76599C6.45761 0.440116 8.41485 -0.138043 10.6151 0.0315146C14.0582 0.29782 16.5587 2.35645 17.962 5.24392C17.9885 5.29844 18.0149 5.29844 18.0414 5.24392C18.9776 3.29401 20.5033 1.58446 22.585 0.712738C24.0731 0.0903614 25.6077 -0.124412 27.1888 0.0684186C28.7355 0.256595 30.1477 0.865339 31.4254 1.89465C33.2312 3.35086 34.0826 5.5202 33.8518 7.73542C33.7559 8.66167 33.4864 9.59358 33.0433 10.5311C32.5119 11.6552 31.9912 12.7294 31.6401 13.9901C31.4468 14.6813 31.3298 15.3077 31.5832 15.966C31.5989 16.0072 31.6276 16.0175 31.6691 15.9969C32.2395 15.7076 32.8014 15.688 33.3547 15.938C34.2683 16.35 34.5883 17.4621 34.0332 18.249C33.2602 19.3441 31.5359 19.1816 30.9873 18.0066C30.7833 17.5711 30.793 17.1273 31.0163 16.6751C31.0238 16.6598 31.0251 16.6425 31.0202 16.6264C31.0153 16.6103 31.0044 16.5965 30.9895 16.5873C30.1714 16.0757 29.4864 15.4204 29.2512 14.5118C28.8433 12.9349 29.2051 11.4637 29.6163 9.89878C29.6964 9.59158 29.7326 9.26377 29.7247 8.91534C29.699 7.87406 28.4653 7.50901 27.5581 7.63469C25.5161 7.91595 25.0813 11.2872 25.0501 12.7324C25.0344 13.4771 25.0111 14.1577 24.9803 14.7741C24.8572 17.2396 24.1543 19.5247 22.8717 21.6292C22.6527 21.9892 22.7697 22.3423 23.24 22.4151C26.4126 22.9059 29.2942 23.4464 32.4195 24.2324C32.4632 24.243 32.4926 24.2291 32.5076 24.1905C32.8608 23.2948 33.8174 22.834 34.7987 23.1383C36.057 23.5282 36.4081 25.0463 35.4612 25.8961C34.643 26.6301 33.2623 26.4975 32.6676 25.5609C32.6396 25.517 32.6024 25.5084 32.5559 25.535C30.7114 26.6022 28.7044 27.055 26.535 26.8935C26.1957 26.8682 25.8564 26.8037 25.5171 26.7C25.4262 26.672 25.4187 26.6853 25.4946 26.7399C26.4566 27.4367 27.1655 28.3786 27.6215 29.5655C28.0688 30.7311 28.3727 31.8229 28.533 32.8409C28.5387 32.8775 28.5616 32.8955 28.6017 32.8948C29.3647 32.8795 29.9266 33.1488 30.2873 33.7027C30.7876 34.4737 30.5385 35.505 29.6947 35.9758C29.1128 36.2999 28.3451 36.3129 27.7965 35.9598C27.0471 35.4784 26.808 34.8048 27.0793 33.9391C27.0907 33.9025 27.0771 33.8769 27.0385 33.8623C25.6671 33.3476 24.4163 32.7226 23.2861 31.9872C22.4809 31.4632 21.8274 30.8588 21.3257 30.1739C21.2963 30.1333 21.2813 30.1377 21.2806 30.1869C21.2741 31.5752 20.9009 33.0348 20.1608 34.5655C19.7306 35.4531 19.3144 36.2105 18.9121 36.8375C18.8907 36.8708 18.8975 36.898 18.9325 36.9193C19.4779 37.2491 19.7621 37.7053 19.785 38.2877C19.8204 39.1874 19.0678 39.9614 18.1048 39.9983C16.2291 40.0701 15.5033 37.8728 17.0655 36.9183C17.0791 36.9101 17.0888 36.8974 17.0926 36.8827C17.0964 36.868 17.094 36.8526 17.0859 36.8395C15.863 34.8866 14.8699 32.7871 14.7228 30.523C14.7164 30.4183 14.7314 30.3066 14.7303 30.2008C14.7296 30.1357 14.7096 30.13 14.6702 30.1839C14.2178 30.7969 13.642 31.3458 12.9427 31.8306C11.8584 32.5826 10.5292 33.2615 8.95524 33.8673C8.91659 33.8819 8.90371 33.9078 8.91659 33.9451C9.1578 34.6386 9.02682 35.2291 8.52364 35.7164C7.90415 36.3159 6.89816 36.3987 6.17345 35.89C5.29737 35.2756 5.22007 34.1406 5.95336 33.4085C6.31267 33.0507 6.79223 32.8802 7.39203 32.8968C7.43283 32.8981 7.45645 32.8802 7.46289 32.8429C7.67547 31.6068 8.01295 30.4339 8.47533 29.3241C8.90478 28.2955 9.58475 27.4284 10.5152 26.7229C10.5675 26.683 10.5614 26.673 10.497 26.693ZM16.7649 4.81903C15.5098 2.57089 13.1972 0.985028 10.3993 0.81946C8.4102 0.702432 6.65659 1.26496 5.13847 2.50706C2.69702 4.50385 2.47049 7.55888 3.75777 10.2339C4.0133 10.7652 4.27419 11.33 4.54046 11.9285C5.00212 12.9658 5.3056 14.018 5.4509 15.0853C5.45806 15.1391 5.47953 15.1448 5.51532 15.1022C6.16057 14.3402 6.1552 12.9219 5.96946 11.9544C5.85423 11.348 5.71358 10.7173 5.54752 10.0624C5.42012 9.55701 5.38898 9.08756 5.45412 8.65403C5.70428 6.99934 8.00186 6.38395 9.4008 7.08711C11.5094 8.14635 11.8347 11.4657 11.839 13.4425C11.839 13.4904 11.8544 13.4951 11.8852 13.4565C13.4248 11.5585 16.2764 11.9375 17.9222 13.5373C17.9745 13.5878 18.0006 13.5782 18.0006 13.5084L17.9985 7.46712C17.9985 7.37555 17.9795 7.28512 17.9426 7.20082C17.5783 6.36633 17.1857 5.5724 16.7649 4.81903ZM17.9802 15.0853C17.4069 13.9309 16.4782 13.2464 15.1941 13.0316C13.7104 12.7843 12.3726 13.5173 12.2084 14.9696C12.1203 15.7422 12.1855 16.6422 12.4038 17.6695C12.6586 18.8704 13.1217 20.0437 13.793 21.1893C14.5682 22.5109 15.7224 23.9013 17.2845 24.2484C19.8172 24.8119 21.6123 22.3812 22.5561 20.558C23.309 19.1051 23.732 17.5781 23.8251 15.9769C23.8666 15.2761 23.7993 14.7202 23.6233 14.3093C23.0349 12.9408 21.2731 12.7104 19.9385 13.267C19.0639 13.6327 18.4258 14.2388 18.0242 15.0853C18.0225 15.0892 18.0196 15.0925 18.0158 15.0949C18.012 15.0972 18.0075 15.0985 18.0029 15.0985C17.9982 15.0985 17.9936 15.0972 17.9896 15.0949C17.9856 15.0925 17.9823 15.0892 17.9802 15.0853ZM4.29245 17.3723C4.29245 17.1591 4.20127 16.9546 4.03899 16.8038C3.8767 16.6531 3.6566 16.5684 3.42709 16.5684C3.19759 16.5684 2.97748 16.6531 2.8152 16.8038C2.65292 16.9546 2.56174 17.1591 2.56174 17.3723C2.56174 17.5855 2.65292 17.79 2.8152 17.9407C2.97748 18.0915 3.19759 18.1762 3.42709 18.1762C3.6566 18.1762 3.8767 18.0915 4.03899 17.9407C4.20127 17.79 4.29245 17.5855 4.29245 17.3723ZM33.4384 17.3723C33.4384 17.1588 33.3471 16.9541 33.1847 16.8031C33.0222 16.6522 32.8018 16.5674 32.572 16.5674C32.3422 16.5674 32.1218 16.6522 31.9593 16.8031C31.7969 16.9541 31.7056 17.1588 31.7056 17.3723C31.7056 17.5858 31.7969 17.7905 31.9593 17.9414C32.1218 18.0924 32.3422 18.1772 32.572 18.1772C32.8018 18.1772 33.0222 18.0924 33.1847 17.9414C33.3471 17.7905 33.4384 17.5858 33.4384 17.3723ZM2.66696 24.7072C2.66696 24.4913 2.57466 24.2843 2.41036 24.1317C2.24606 23.979 2.02323 23.8933 1.79088 23.8933C1.55852 23.8933 1.33569 23.979 1.17139 24.1317C1.00709 24.2843 0.914788 24.4913 0.914788 24.7072C0.914788 24.923 1.00709 25.13 1.17139 25.2827C1.33569 25.4353 1.55852 25.521 1.79088 25.521C2.02323 25.521 2.24606 25.4353 2.41036 25.2827C2.57466 25.13 2.66696 24.923 2.66696 24.7072ZM35.0875 24.7072C35.0875 24.4916 34.9953 24.2848 34.8312 24.1324C34.6671 23.9799 34.4446 23.8943 34.2125 23.8943C33.9805 23.8943 33.7579 23.9799 33.5938 24.1324C33.4297 24.2848 33.3375 24.4916 33.3375 24.7072C33.3375 24.9228 33.4297 25.1295 33.5938 25.282C33.7579 25.4344 33.9805 25.52 34.2125 25.52C34.4446 25.52 34.6671 25.4344 34.8312 25.282C34.9953 25.1295 35.0875 24.9228 35.0875 24.7072ZM23.1412 30.8092C24.4113 31.8166 26.0056 32.5497 27.615 33.1851C27.6226 33.188 27.6308 33.1889 27.6389 33.1879C27.647 33.1869 27.6546 33.1839 27.6611 33.1793C27.6675 33.1746 27.6725 33.1684 27.6756 33.1614C27.6786 33.1543 27.6796 33.1467 27.6784 33.1392C27.4465 31.7887 27.0857 30.4053 26.4501 29.1645C26.0579 28.3999 25.5014 27.7762 24.7806 27.2934C23.3863 26.3592 21.9691 25.4137 20.529 24.4568C20.4789 24.4236 20.4281 24.4222 20.3766 24.4528L20.0191 24.6663C20.003 24.6757 19.9908 24.6897 19.9844 24.7062C19.978 24.7226 19.9777 24.7405 19.9836 24.757C20.5129 26.2761 21.0616 27.7622 21.7841 29.1935C22.1062 29.8328 22.5765 30.3614 23.1412 30.8092ZM14.3674 28.9082C15.0037 27.5225 15.5527 26.1368 16.0144 24.751C16.0266 24.7131 16.0148 24.6839 15.979 24.6633L15.601 24.4458C15.5581 24.4212 15.5162 24.4226 15.4754 24.4498C14.162 25.3355 12.8644 26.2003 11.5824 27.0441C10.5281 27.7373 9.86461 28.4265 9.3847 29.4967C8.908 30.5599 8.55585 31.7707 8.32824 33.1292C8.32696 33.1368 8.32784 33.1445 8.3308 33.1517C8.33375 33.1589 8.33868 33.1652 8.3451 33.1701C8.35151 33.1749 8.35917 33.1781 8.36733 33.1793C8.37549 33.1806 8.38385 33.1798 8.39159 33.1771C9.8367 32.6478 11.1566 31.9865 12.3512 31.1932C13.2802 30.5755 13.9523 29.8138 14.3674 28.9082ZM8.11781 34.5595C8.11781 34.3441 8.02573 34.1376 7.86184 33.9854C7.69794 33.8331 7.47565 33.7476 7.24387 33.7476C7.01209 33.7476 6.7898 33.8331 6.6259 33.9854C6.46201 34.1376 6.36993 34.3441 6.36993 34.5595C6.36993 34.7748 6.46201 34.9813 6.6259 35.1336C6.7898 35.2858 7.01209 35.3713 7.24387 35.3713C7.47565 35.3713 7.69794 35.2858 7.86184 35.1336C8.02573 34.9813 8.11781 34.7748 8.11781 34.5595ZM29.6335 34.5605C29.6335 34.3449 29.5413 34.1381 29.3772 33.9857C29.2131 33.8332 28.9905 33.7476 28.7585 33.7476C28.5264 33.7476 28.3038 33.8332 28.1397 33.9857C27.9756 34.1381 27.8834 34.3449 27.8834 34.5605C27.8834 34.7761 27.9756 34.9828 28.1397 35.1353C28.3038 35.2877 28.5264 35.3733 28.7585 35.3733C28.9905 35.3733 29.2131 35.2877 29.3772 35.1353C29.5413 34.9828 29.6335 34.7761 29.6335 34.5605ZM18.8756 38.3416C18.8756 38.126 18.7834 37.9193 18.6194 37.7668C18.4553 37.6144 18.2327 37.5287 18.0006 37.5287C17.7686 37.5287 17.546 37.6144 17.3819 37.7668C17.2178 37.9193 17.1256 38.126 17.1256 38.3416C17.1256 38.5572 17.2178 38.764 17.3819 38.9164C17.546 39.0688 17.7686 39.1545 18.0006 39.1545C18.2327 39.1545 18.4553 39.0688 18.6194 38.9164C18.7834 38.764 18.8756 38.5572 18.8756 38.3416Z" fill="white"/>
<path d="M53.9 29H49.644V28.566L50.96 27.544L49.882 24.954H45.178L44.03 27.6L46.494 28.44L46.214 29H41.958V28.566L43.274 27.53L47.236 18.444L48.692 17.73L52.78 27.586L54.18 28.44L53.9 29ZM47.586 19.41L45.458 24.324H49.63L47.586 19.41ZM60.0056 21.44C60.3136 21.44 60.5843 21.524 60.8176 21.692C61.051 21.86 61.233 22.0933 61.3636 22.392L60.4396 23.554H59.9076C59.8703 23.3207 59.8003 23.1573 59.6976 23.064C59.6043 22.9613 59.4736 22.91 59.3056 22.91C59.1003 22.91 58.881 22.966 58.6476 23.078C58.4236 23.1807 58.167 23.3813 57.8776 23.68V27.852L59.8376 28.454L59.5576 29.014H54.9516V28.58L56.1976 27.6V23.638L54.9516 22.91V22.476L57.3456 21.3L57.7796 23.022L59.2356 21.538C59.4316 21.4633 59.6883 21.426 60.0056 21.426V21.44ZM65.8374 29H61.9314V28.566L63.1774 27.586V18.976L61.9314 18.108V17.674L64.3254 16.778H64.8574V27.95L66.1174 28.44L65.8374 29ZM72.1534 29.028C71.78 29.1027 71.332 29.14 70.8094 29.14C70.1934 29.14 69.638 28.9813 69.1434 28.664C68.658 28.3373 68.2754 27.8987 67.9954 27.348C67.7247 26.7973 67.5894 26.1907 67.5894 25.528C67.5894 24.8093 67.8087 24.1373 68.2474 23.512C68.686 22.8773 69.232 22.3733 69.8854 22C70.548 21.6173 71.1874 21.426 71.8034 21.426C72.69 21.426 73.376 21.776 73.8614 22.476C74.356 23.176 74.6034 24.1 74.6034 25.248H69.4234C69.4794 26.0413 69.694 26.69 70.0674 27.194C70.45 27.698 70.968 27.95 71.6214 27.95C72.228 27.95 73.0914 27.4787 74.2114 26.536L74.6314 27.068L72.1534 29.028ZM70.9914 22.602C69.9834 22.602 69.456 23.2927 69.4094 24.674H72.6854C72.6014 24.17 72.5127 23.7873 72.4194 23.526C72.3354 23.2553 72.1814 23.036 71.9574 22.868C71.7427 22.6907 71.4207 22.602 70.9914 22.602ZM84.8455 32.57H80.2395V32.136L82.1855 31.1V28.006L80.8835 29.042C80.5848 29.1167 80.2255 29.154 79.8055 29.154C79.1895 29.154 78.6341 28.9953 78.1395 28.678C77.6541 28.3513 77.2715 27.9127 76.9915 27.362C76.7208 26.8113 76.5855 26.2047 76.5855 25.542C76.5855 24.8233 76.8048 24.1513 77.2435 23.526C77.6821 22.8913 78.2281 22.3873 78.8815 22.014C79.5441 21.6313 80.1835 21.44 80.7995 21.44C81.5181 21.44 82.1295 21.7153 82.6335 22.266L83.3335 21.286H83.8655V31.506L85.1255 32.01L84.8455 32.57ZM80.5195 27.964C80.7995 27.964 81.0655 27.9267 81.3175 27.852C81.5788 27.768 81.8681 27.614 82.1855 27.39V24.198C82.1295 23.7313 81.9101 23.3533 81.5275 23.064C81.1541 22.7653 80.6408 22.616 79.9875 22.616C78.9328 22.616 78.4055 23.3673 78.4055 24.87C78.4055 25.7473 78.5875 26.4847 78.9515 27.082C79.3155 27.67 79.8381 27.964 80.5195 27.964ZM94.4926 29H91.8326V27.544L90.0546 29.028C89.8586 29.1027 89.6019 29.14 89.2846 29.14C88.6499 29.14 88.1459 28.9487 87.7726 28.566C87.3992 28.174 87.2126 27.6467 87.2126 26.984V23.638L85.9666 22.91V22.476L88.3606 21.3H88.8926V26.284C88.8926 26.7973 88.9719 27.1567 89.1306 27.362C89.2892 27.5673 89.5739 27.67 89.9846 27.67C90.2739 27.67 90.5586 27.6187 90.8386 27.516C91.1186 27.404 91.4499 27.1893 91.8326 26.872V23.638L90.5866 22.91V22.476L92.9806 21.3H93.5126V27.95L94.7726 28.44L94.4926 29ZM99.9416 29H96.0356V28.566L97.2816 27.586V23.498L96.0356 22.63V22.196L98.4296 21.3H98.9616V27.95L100.222 28.44L99.9416 29ZM100.726 17.114L97.6456 19.536L97.0856 19.256L98.5836 16.512L100.46 16.778L100.726 17.114ZM110.143 29.014H107.483V24.296C107.483 23.7827 107.404 23.4233 107.245 23.218C107.086 23.0127 106.802 22.91 106.391 22.91C106.083 22.91 105.775 22.966 105.467 23.078C105.168 23.19 104.814 23.4047 104.403 23.722V27.964L105.663 28.454L105.383 29.014H101.477V28.58L102.723 27.6V23.638L101.477 22.91V22.476L103.871 21.3L104.333 23.12L106.321 21.538C106.517 21.4633 106.774 21.426 107.091 21.426C107.726 21.426 108.23 21.622 108.603 22.014C108.976 22.3967 109.163 22.9193 109.163 23.582V27.95L110.423 28.454L110.143 29.014ZM121.26 17.87C122.221 17.87 123.07 18.1033 123.808 18.57C124.554 19.0273 125.128 19.6667 125.53 20.488C125.94 21.3093 126.146 22.238 126.146 23.274C126.146 24.338 125.833 25.3227 125.208 26.228C124.592 27.124 123.822 27.838 122.898 28.37C121.983 28.8927 121.106 29.154 120.266 29.154C119.836 29.154 119.402 29.1307 118.964 29.084C118.245 29.0373 117.69 29.014 117.298 29.014H115.52V28.58L116.836 27.544V19.032L115.38 18.556L115.66 17.996H117.284C118.17 17.996 119.034 17.968 119.874 17.912C120.508 17.8747 120.97 17.856 121.26 17.856V17.87ZM120.658 28.118C121.33 28.118 121.941 27.9407 122.492 27.586C123.042 27.222 123.472 26.7227 123.78 26.088C124.097 25.444 124.256 24.7253 124.256 23.932C124.256 22.98 124.106 22.1167 123.808 21.342C123.509 20.558 123.052 19.9327 122.436 19.466C121.829 18.9993 121.073 18.766 120.168 18.766C119.598 18.766 119.071 18.934 118.586 19.27V27.768C119.155 28.0013 119.846 28.118 120.658 28.118ZM132.665 29.028C132.292 29.1027 131.844 29.14 131.321 29.14C130.705 29.14 130.15 28.9813 129.655 28.664C129.17 28.3373 128.787 27.8987 128.507 27.348C128.236 26.7973 128.101 26.1907 128.101 25.528C128.101 24.8093 128.32 24.1373 128.759 23.512C129.198 22.8773 129.744 22.3733 130.397 22C131.06 21.6173 131.699 21.426 132.315 21.426C133.202 21.426 133.888 21.776 134.373 22.476C134.868 23.176 135.115 24.1 135.115 25.248H129.935C129.991 26.0413 130.206 26.69 130.579 27.194C130.962 27.698 131.48 27.95 132.133 27.95C132.74 27.95 133.603 27.4787 134.723 26.536L135.143 27.068L132.665 29.028ZM131.503 22.602C130.495 22.602 129.968 23.2927 129.921 24.674H133.197C133.113 24.17 133.024 23.7873 132.931 23.526C132.847 23.2553 132.693 23.036 132.469 22.868C132.254 22.6907 131.932 22.602 131.503 22.602ZM144.279 22L140.737 29H139.673L137.489 23.666L136.187 22.91V22.476L138.581 21.3L139.113 23.414L140.821 27.586L142.795 23.484L140.933 22.126L141.213 21.566H144.279V22Z" fill="white"/>
</svg>
